<svg xmlns="http://www.w3.org/2000/svg" width="148" height="34" viewBox="0 0 148 34" role="img" aria-label="기술 블로그">
  <rect x="0.5" y="0.5" width="147" height="33" rx="16.5" fill="#050505" stroke="#2f2f2f"/>
  <circle cx="18" cy="17" r="6" fill="#f4f4f4"/>
  <path d="M18 7.2v19.6M8.2 17h19.6" stroke="#050505" stroke-width="2.3" stroke-linecap="square"/>
  <path d="M39 11h12.5c4.1 0 6.5 1.8 6.5 4.7 0 1.9-1 3.2-2.8 3.9 2.2.7 3.4 2.2 3.4 4.4 0 3.3-2.6 5.1-7.2 5.1H39V11Zm5.2 4v3.1h6.1c1.6 0 2.4-.5 2.4-1.6s-.8-1.5-2.4-1.5h-6.1Zm0 7v3.2h6.7c1.7 0 2.5-.5 2.5-1.6 0-1.1-.8-1.6-2.5-1.6h-6.7Z" fill="#f4f4f4"/>
  <path d="M64 11h5.2v13.6h11.1V29H64V11Zm18.8 9c0-5.7 4.3-9.5 10.6-9.5S104 14.3 104 20s-4.3 9.5-10.6 9.5S82.8 25.7 82.8 20Zm15.8 0c0-3-2-5-5.2-5s-5.2 2-5.2 5 2 5 5.2 5 5.2-2 5.2-5Zm26.5 7.1c-2 1.6-4.6 2.4-7.7 2.4-6.5 0-10.9-3.8-10.9-9.5s4.4-9.5 10.9-9.5c3 0 5.6.8 7.6 2.3l-3 3.6c-1.2-.9-2.6-1.4-4.4-1.4-3.4 0-5.7 2-5.7 5s2.2 5 5.7 5c1.2 0 2.3-.2 3.1-.6v-2.1h-4.2v-3.8h9.1v8.6h-.5Z" fill="#f4f4f4"/>
</svg>
